<?xml version="1.0" encoding="UTF-8" standalone="no"?>
<!DOCTYPE svg PUBLIC "-//W3C//DTD SVG 1.1//EN"
 "http://www.w3.org/Graphics/SVG/1.1/DTD/svg11.dtd">
<!-- Generated by graphviz version 2.36.0 (20140111.2315)
 -->
<!-- Title: controllers_diagram Pages: 1 -->
<svg width="350pt" height="263pt"
 viewBox="0.00 0.00 350.00 263.00" xmlns="http://www.w3.org/2000/svg" xmlns:xlink="http://www.w3.org/1999/xlink">
<g id="graph0" class="graph" transform="scale(1 1) rotate(0) translate(4 259)">
<title>controllers_diagram</title>
<polygon fill="none" stroke="none" points="-4,4 -4,-259 346,-259 346,4 -4,4"/>
<!-- _diagram_info -->
<g id="node1" class="node"><title>_diagram_info</title>
<text text-anchor="start" x="136" y="-111.6" font-family="Times,serif" font-size="13.00">Controllers diagram</text>
<text text-anchor="start" x="136" y="-97.6" font-family="Times,serif" font-size="13.00">Date: Nov 20 2016 &#45; 04:02</text>
<text text-anchor="start" x="136" y="-83.6" font-family="Times,serif" font-size="13.00">Migration version: 20161120060027</text>
<text text-anchor="start" x="136" y="-69.6" font-family="Times,serif" font-size="13.00">Generated by RailRoady 1.5.2</text>
<text text-anchor="start" x="136" y="-55.6" font-family="Times,serif" font-size="13.00">http://railroady.prestonlee.com</text>
</g>
<!-- UsersController -->
<g id="node2" class="node"><title>UsersController</title>
<path fill="none" stroke="black" d="M12,-0.5C12,-0.5 91,-0.5 91,-0.5 97,-0.5 103,-6.5 103,-12.5 103,-12.5 103,-201.5 103,-201.5 103,-207.5 97,-213.5 91,-213.5 91,-213.5 12,-213.5 12,-213.5 6,-213.5 0,-207.5 0,-201.5 0,-201.5 0,-12.5 0,-12.5 0,-6.5 6,-0.5 12,-0.5"/>
<text text-anchor="middle" x="51.5" y="-198.3" font-family="Times,serif" font-size="14.00">UsersController</text>
<polyline fill="none" stroke="black" points="0,-190.5 103,-190.5 "/>
<text text-anchor="start" x="8" y="-175.3" font-family="Times,serif" font-size="14.00">create</text>
<text text-anchor="start" x="8" y="-160.3" font-family="Times,serif" font-size="14.00">destroy</text>
<text text-anchor="start" x="8" y="-145.3" font-family="Times,serif" font-size="14.00">edit</text>
<text text-anchor="start" x="8" y="-130.3" font-family="Times,serif" font-size="14.00">index</text>
<text text-anchor="start" x="8" y="-115.3" font-family="Times,serif" font-size="14.00">new</text>
<text text-anchor="start" x="8" y="-100.3" font-family="Times,serif" font-size="14.00">show</text>
<text text-anchor="start" x="8" y="-85.3" font-family="Times,serif" font-size="14.00">update</text>
<polyline fill="none" stroke="black" points="0,-77.5 103,-77.5 "/>
<polyline fill="none" stroke="black" points="0,-53.5 103,-53.5 "/>
<text text-anchor="start" x="8" y="-38.3" font-family="Times,serif" font-size="14.00">_layout</text>
<text text-anchor="start" x="8" y="-23.3" font-family="Times,serif" font-size="14.00">set_user</text>
<text text-anchor="start" x="8" y="-8.3" font-family="Times,serif" font-size="14.00">user_params</text>
</g>
<!-- ApplicationController -->
<g id="node3" class="node"><title>ApplicationController</title>
<path fill="none" stroke="black" d="M140,-160.5C140,-160.5 252,-160.5 252,-160.5 258,-160.5 264,-166.5 264,-172.5 264,-172.5 264,-242.5 264,-242.5 264,-248.5 258,-254.5 252,-254.5 252,-254.5 140,-254.5 140,-254.5 134,-254.5 128,-248.5 128,-242.5 128,-242.5 128,-172.5 128,-172.5 128,-166.5 134,-160.5 140,-160.5"/>
<text text-anchor="middle" x="196" y="-239.3" font-family="Times,serif" font-size="14.00">ApplicationController</text>
<polyline fill="none" stroke="black" points="128,-231.5 264,-231.5 "/>
<polyline fill="none" stroke="black" points="128,-207.5 264,-207.5 "/>
<polyline fill="none" stroke="black" points="128,-183.5 264,-183.5 "/>
<text text-anchor="start" x="136" y="-168.3" font-family="Times,serif" font-size="14.00">_layout</text>
</g>
</g>
</svg>
