<?xml version="1.0" encoding="UTF-8" standalone="no"?>
<!DOCTYPE svg PUBLIC "-//W3C//DTD SVG 1.1//EN"
 "http://www.w3.org/Graphics/SVG/1.1/DTD/svg11.dtd">
<!-- Generated by graphviz version 2.36.0 (20140111.2315)
 -->
<!-- Title: controllers_diagram Pages: 1 -->
<svg width="392pt" height="426pt"
 viewBox="0.00 0.00 392.00 426.00" xmlns="http://www.w3.org/2000/svg" xmlns:xlink="http://www.w3.org/1999/xlink">
<g id="graph0" class="graph" transform="scale(1 1) rotate(0) translate(4 422)">
<title>controllers_diagram</title>
<polygon fill="none" stroke="none" points="-4,4 -4,-422 388,-422 388,4 -4,4"/>
<!-- _diagram_info -->
<g id="node1" class="node"><title>_diagram_info</title>
<text text-anchor="start" x="178" y="-63.6" font-family="Times,serif" font-size="13.00">Controllers diagram</text>
<text text-anchor="start" x="178" y="-49.6" font-family="Times,serif" font-size="13.00">Date: Nov 20 2016 &#45; 05:47</text>
<text text-anchor="start" x="178" y="-35.6" font-family="Times,serif" font-size="13.00">Migration version: 20161120074840</text>
<text text-anchor="start" x="178" y="-21.6" font-family="Times,serif" font-size="13.00">Generated by RailRoady 1.5.2</text>
<text text-anchor="start" x="178" y="-7.6" font-family="Times,serif" font-size="13.00">http://railroady.prestonlee.com</text>
</g>
<!-- UsersController -->
<g id="node2" class="node"><title>UsersController</title>
<path fill="none" stroke="black" d="M182,-119.5C182,-119.5 261,-119.5 261,-119.5 267,-119.5 273,-125.5 273,-131.5 273,-131.5 273,-320.5 273,-320.5 273,-326.5 267,-332.5 261,-332.5 261,-332.5 182,-332.5 182,-332.5 176,-332.5 170,-326.5 170,-320.5 170,-320.5 170,-131.5 170,-131.5 170,-125.5 176,-119.5 182,-119.5"/>
<text text-anchor="middle" x="221.5" y="-317.3" font-family="Times,serif" font-size="14.00">UsersController</text>
<polyline fill="none" stroke="black" points="170,-309.5 273,-309.5 "/>
<text text-anchor="start" x="178" y="-294.3" font-family="Times,serif" font-size="14.00">create</text>
<text text-anchor="start" x="178" y="-279.3" font-family="Times,serif" font-size="14.00">destroy</text>
<text text-anchor="start" x="178" y="-264.3" font-family="Times,serif" font-size="14.00">edit</text>
<text text-anchor="start" x="178" y="-249.3" font-family="Times,serif" font-size="14.00">index</text>
<text text-anchor="start" x="178" y="-234.3" font-family="Times,serif" font-size="14.00">new</text>
<text text-anchor="start" x="178" y="-219.3" font-family="Times,serif" font-size="14.00">show</text>
<text text-anchor="start" x="178" y="-204.3" font-family="Times,serif" font-size="14.00">update</text>
<polyline fill="none" stroke="black" points="170,-196.5 273,-196.5 "/>
<polyline fill="none" stroke="black" points="170,-172.5 273,-172.5 "/>
<text text-anchor="start" x="178" y="-157.3" font-family="Times,serif" font-size="14.00">_layout</text>
<text text-anchor="start" x="178" y="-142.3" font-family="Times,serif" font-size="14.00">set_user</text>
<text text-anchor="start" x="178" y="-127.3" font-family="Times,serif" font-size="14.00">user_params</text>
</g>
<!-- MeetsController -->
<g id="node3" class="node"><title>MeetsController</title>
<path fill="none" stroke="black" d="M46,-68.5C46,-68.5 128,-68.5 128,-68.5 134,-68.5 140,-74.5 140,-80.5 140,-80.5 140,-269.5 140,-269.5 140,-275.5 134,-281.5 128,-281.5 128,-281.5 46,-281.5 46,-281.5 40,-281.5 34,-275.5 34,-269.5 34,-269.5 34,-80.5 34,-80.5 34,-74.5 40,-68.5 46,-68.5"/>
<text text-anchor="middle" x="87" y="-266.3" font-family="Times,serif" font-size="14.00">MeetsController</text>
<polyline fill="none" stroke="black" points="34,-258.5 140,-258.5 "/>
<text text-anchor="start" x="42" y="-243.3" font-family="Times,serif" font-size="14.00">create</text>
<text text-anchor="start" x="42" y="-228.3" font-family="Times,serif" font-size="14.00">destroy</text>
<text text-anchor="start" x="42" y="-213.3" font-family="Times,serif" font-size="14.00">edit</text>
<text text-anchor="start" x="42" y="-198.3" font-family="Times,serif" font-size="14.00">index</text>
<text text-anchor="start" x="42" y="-183.3" font-family="Times,serif" font-size="14.00">new</text>
<text text-anchor="start" x="42" y="-168.3" font-family="Times,serif" font-size="14.00">show</text>
<text text-anchor="start" x="42" y="-153.3" font-family="Times,serif" font-size="14.00">update</text>
<polyline fill="none" stroke="black" points="34,-145.5 140,-145.5 "/>
<polyline fill="none" stroke="black" points="34,-121.5 140,-121.5 "/>
<text text-anchor="start" x="42" y="-106.3" font-family="Times,serif" font-size="14.00">_layout</text>
<text text-anchor="start" x="42" y="-91.3" font-family="Times,serif" font-size="14.00">meet_params</text>
<text text-anchor="start" x="42" y="-76.3" font-family="Times,serif" font-size="14.00">set_meet</text>
</g>
<!-- ApplicationController -->
<g id="node4" class="node"><title>ApplicationController</title>
<path fill="none" stroke="black" d="M12,-323.5C12,-323.5 124,-323.5 124,-323.5 130,-323.5 136,-329.5 136,-335.5 136,-335.5 136,-405.5 136,-405.5 136,-411.5 130,-417.5 124,-417.5 124,-417.5 12,-417.5 12,-417.5 6,-417.5 0,-411.5 0,-405.5 0,-405.5 0,-335.5 0,-335.5 0,-329.5 6,-323.5 12,-323.5"/>
<text text-anchor="middle" x="68" y="-402.3" font-family="Times,serif" font-size="14.00">ApplicationController</text>
<polyline fill="none" stroke="black" points="0,-394.5 136,-394.5 "/>
<polyline fill="none" stroke="black" points="0,-370.5 136,-370.5 "/>
<polyline fill="none" stroke="black" points="0,-346.5 136,-346.5 "/>
<text text-anchor="start" x="8" y="-331.3" font-family="Times,serif" font-size="14.00">_layout</text>
</g>
</g>
</svg>
