<?xml version="1.0" encoding="UTF-8" standalone="no"?>
<!DOCTYPE svg PUBLIC "-//W3C//DTD SVG 1.1//EN"
 "http://www.w3.org/Graphics/SVG/1.1/DTD/svg11.dtd">
<!-- Generated by graphviz version 2.36.0 (20140111.2315)
 -->
<!-- Title: models_diagram Pages: 1 -->
<svg width="580pt" height="158pt"
 viewBox="0.00 0.00 580.00 158.00" xmlns="http://www.w3.org/2000/svg" xmlns:xlink="http://www.w3.org/1999/xlink">
<g id="graph0" class="graph" transform="scale(1 1) rotate(0) translate(4 154)">
<title>models_diagram</title>
<polygon fill="none" stroke="none" points="-4,4 -4,-154 576,-154 576,4 -4,4"/>
<!-- _diagram_info -->
<g id="node1" class="node"><title>_diagram_info</title>
<text text-anchor="start" x="7" y="-135.6" font-family="Times,serif" font-size="13.00">Models diagram</text>
<text text-anchor="start" x="7" y="-121.6" font-family="Times,serif" font-size="13.00">Date: Nov 20 2016 &#45; 05:47</text>
<text text-anchor="start" x="7" y="-107.6" font-family="Times,serif" font-size="13.00">Migration version: 20161120074840</text>
<text text-anchor="start" x="7" y="-93.6" font-family="Times,serif" font-size="13.00">Generated by RailRoady 1.5.2</text>
<text text-anchor="start" x="7" y="-79.6" font-family="Times,serif" font-size="13.00">http://railroady.prestonlee.com</text>
</g>
<!-- UserMeet -->
<g id="node2" class="node"><title>UserMeet</title>
<ellipse fill="none" stroke="black" cx="277" cy="-111" rx="46.2191" ry="18"/>
<text text-anchor="middle" x="277" y="-107.3" font-family="Times,serif" font-size="14.00">UserMeet</text>
</g>
<!-- ApplicationRecord -->
<g id="node3" class="node"><title>ApplicationRecord</title>
<ellipse fill="none" stroke="black" cx="418" cy="-111" rx="77.0154" ry="18"/>
<text text-anchor="middle" x="418" y="-107.3" font-family="Times,serif" font-size="14.00">ApplicationRecord</text>
</g>
<!-- Meet -->
<g id="node4" class="node"><title>Meet</title>
<ellipse fill="none" stroke="black" cx="543" cy="-111" rx="29.3722" ry="18"/>
<text text-anchor="middle" x="543" y="-107.3" font-family="Times,serif" font-size="14.00">Meet</text>
</g>
<!-- User -->
<g id="node5" class="node"><title>User</title>
<ellipse fill="none" stroke="black" cx="543" cy="-18" rx="26.949" ry="18"/>
<text text-anchor="middle" x="543" y="-14.3" font-family="Times,serif" font-size="14.00">User</text>
</g>
<!-- Meet&#45;&gt;User -->
<g id="edge1" class="edge"><title>Meet&#45;&gt;User</title>
<path fill="none" stroke="#54563b" d="M543,-82.5485C543,-71.0829 543,-57.7923 543,-46.3387"/>
<polygon fill="#54563b" stroke="#54563b" points="543,-82.8836 538.5,-92.8836 543,-87.8836 543,-92.8836 543,-92.8836 543,-92.8836 543,-87.8836 547.5,-92.8836 543,-82.8836 543,-82.8836"/>
<polygon fill="#54563b" stroke="#54563b" points="543,-46.0397 547.5,-36.0396 543,-41.0397 543,-36.0397 543,-36.0397 543,-36.0397 543,-41.0397 538.5,-36.0397 543,-46.0397 543,-46.0397"/>
</g>
</g>
</svg>
