<?xml version="1.0" encoding="UTF-8" standalone="no"?>
<!DOCTYPE svg PUBLIC "-//W3C//DTD SVG 1.1//EN"
 "http://www.w3.org/Graphics/SVG/1.1/DTD/svg11.dtd">
<!-- Generated by graphviz version 2.36.0 (20140111.2315)
 -->
<!-- Title: models_diagram Pages: 1 -->
<svg width="724pt" height="266pt"
 viewBox="0.00 0.00 724.00 266.00" xmlns="http://www.w3.org/2000/svg" xmlns:xlink="http://www.w3.org/1999/xlink">
<g id="graph0" class="graph" transform="scale(1 1) rotate(0) translate(4 262)">
<title>models_diagram</title>
<polygon fill="none" stroke="none" points="-4,4 -4,-262 720,-262 720,4 -4,4"/>
<!-- _diagram_info -->
<g id="node1" class="node"><title>_diagram_info</title>
<text text-anchor="start" x="7" y="-153.6" font-family="Times,serif" font-size="13.00">Models diagram</text>
<text text-anchor="start" x="7" y="-139.6" font-family="Times,serif" font-size="13.00">Date: Nov 20 2016 &#45; 04:02</text>
<text text-anchor="start" x="7" y="-125.6" font-family="Times,serif" font-size="13.00">Migration version: 20161120060027</text>
<text text-anchor="start" x="7" y="-111.6" font-family="Times,serif" font-size="13.00">Generated by RailRoady 1.5.2</text>
<text text-anchor="start" x="7" y="-97.6" font-family="Times,serif" font-size="13.00">http://railroady.prestonlee.com</text>
</g>
<!-- ApplicationRecord -->
<g id="node2" class="node"><title>ApplicationRecord</title>
<ellipse fill="none" stroke="black" cx="308" cy="-129" rx="77.0154" ry="18"/>
<text text-anchor="middle" x="308" y="-125.3" font-family="Times,serif" font-size="14.00">ApplicationRecord</text>
</g>
<!-- User -->
<g id="node3" class="node"><title>User</title>
<path fill="none" stroke="black" d="M415.5,-1C415.5,-1 704.5,-1 704.5,-1 710.5,-1 716.5,-7 716.5,-13 716.5,-13 716.5,-245 716.5,-245 716.5,-251 710.5,-257 704.5,-257 704.5,-257 415.5,-257 415.5,-257 409.5,-257 403.5,-251 403.5,-245 403.5,-245 403.5,-13 403.5,-13 403.5,-7 409.5,-1 415.5,-1"/>
<text text-anchor="middle" x="560" y="-241.8" font-family="Times,serif" font-size="14.00">User</text>
<polyline fill="none" stroke="black" points="403.5,-234 716.5,-234 "/>
<text text-anchor="start" x="411.5" y="-218.8" font-family="Times,serif" font-size="14.00">id :integer</text>
<text text-anchor="start" x="411.5" y="-203.8" font-family="Times,serif" font-size="14.00">name :character varying</text>
<text text-anchor="start" x="411.5" y="-188.8" font-family="Times,serif" font-size="14.00">email :character varying</text>
<text text-anchor="start" x="411.5" y="-173.8" font-family="Times,serif" font-size="14.00">created_at :timestamp without time zone</text>
<text text-anchor="start" x="411.5" y="-158.8" font-family="Times,serif" font-size="14.00">updated_at :timestamp without time zone</text>
<text text-anchor="start" x="411.5" y="-143.8" font-family="Times,serif" font-size="14.00">encrypted_password :character varying</text>
<text text-anchor="start" x="411.5" y="-128.8" font-family="Times,serif" font-size="14.00">reset_password_token :character varying</text>
<text text-anchor="start" x="411.5" y="-113.8" font-family="Times,serif" font-size="14.00">reset_password_sent_at :timestamp without time zone</text>
<text text-anchor="start" x="411.5" y="-98.8" font-family="Times,serif" font-size="14.00">remember_created_at :timestamp without time zone</text>
<text text-anchor="start" x="411.5" y="-83.8" font-family="Times,serif" font-size="14.00">sign_in_count :integer</text>
<text text-anchor="start" x="411.5" y="-68.8" font-family="Times,serif" font-size="14.00">current_sign_in_at :timestamp without time zone</text>
<text text-anchor="start" x="411.5" y="-53.8" font-family="Times,serif" font-size="14.00">last_sign_in_at :timestamp without time zone</text>
<text text-anchor="start" x="411.5" y="-38.8" font-family="Times,serif" font-size="14.00">current_sign_in_ip :inet</text>
<text text-anchor="start" x="411.5" y="-23.8" font-family="Times,serif" font-size="14.00">last_sign_in_ip :inet</text>
<text text-anchor="start" x="411.5" y="-8.8" font-family="Times,serif" font-size="14.00">role :integer</text>
</g>
</g>
</svg>
