<?xml version="1.0" encoding="UTF-8" standalone="no"?>
<!DOCTYPE svg PUBLIC "-//W3C//DTD SVG 1.1//EN"
 "http://www.w3.org/Graphics/SVG/1.1/DTD/svg11.dtd">
<!-- Generated by graphviz version 2.36.0 (20140111.2315)
 -->
<!-- Title: models_diagram Pages: 1 -->
<svg width="951pt" height="440pt"
 viewBox="0.00 0.00 951.00 440.00" xmlns="http://www.w3.org/2000/svg" xmlns:xlink="http://www.w3.org/1999/xlink">
<g id="graph0" class="graph" transform="scale(1 1) rotate(0) translate(4 436)">
<title>models_diagram</title>
<polygon fill="none" stroke="none" points="-4,4 -4,-436 947,-436 947,4 -4,4"/>
<!-- _diagram_info -->
<g id="node1" class="node"><title>_diagram_info</title>
<text text-anchor="start" x="7" y="-387.6" font-family="Times,serif" font-size="13.00">Models diagram</text>
<text text-anchor="start" x="7" y="-373.6" font-family="Times,serif" font-size="13.00">Date: Nov 20 2016 &#45; 05:47</text>
<text text-anchor="start" x="7" y="-359.6" font-family="Times,serif" font-size="13.00">Migration version: 20161120074840</text>
<text text-anchor="start" x="7" y="-345.6" font-family="Times,serif" font-size="13.00">Generated by RailRoady 1.5.2</text>
<text text-anchor="start" x="7" y="-331.6" font-family="Times,serif" font-size="13.00">http://railroady.prestonlee.com</text>
</g>
<!-- UserMeet -->
<g id="node2" class="node"><title>UserMeet</title>
<path fill="none" stroke="black" d="M243,-310C243,-310 463,-310 463,-310 469,-310 475,-316 475,-322 475,-322 475,-404 475,-404 475,-410 469,-416 463,-416 463,-416 243,-416 243,-416 237,-416 231,-410 231,-404 231,-404 231,-322 231,-322 231,-316 237,-310 243,-310"/>
<text text-anchor="middle" x="353" y="-400.8" font-family="Times,serif" font-size="14.00">UserMeet</text>
<polyline fill="none" stroke="black" points="231,-393 475,-393 "/>
<text text-anchor="start" x="239" y="-377.8" font-family="Times,serif" font-size="14.00">id :integer</text>
<text text-anchor="start" x="239" y="-362.8" font-family="Times,serif" font-size="14.00">user_id :integer</text>
<text text-anchor="start" x="239" y="-347.8" font-family="Times,serif" font-size="14.00">meet_id :integer</text>
<text text-anchor="start" x="239" y="-332.8" font-family="Times,serif" font-size="14.00">created_at :timestamp without time zone</text>
<text text-anchor="start" x="239" y="-317.8" font-family="Times,serif" font-size="14.00">updated_at :timestamp without time zone</text>
</g>
<!-- ApplicationRecord -->
<g id="node3" class="node"><title>ApplicationRecord</title>
<ellipse fill="none" stroke="black" cx="570" cy="-363" rx="77.0154" ry="18"/>
<text text-anchor="middle" x="570" y="-359.3" font-family="Times,serif" font-size="14.00">ApplicationRecord</text>
</g>
<!-- Meet -->
<g id="node4" class="node"><title>Meet</title>
<path fill="none" stroke="black" d="M677,-295C677,-295 897,-295 897,-295 903,-295 909,-301 909,-307 909,-307 909,-419 909,-419 909,-425 903,-431 897,-431 897,-431 677,-431 677,-431 671,-431 665,-425 665,-419 665,-419 665,-307 665,-307 665,-301 671,-295 677,-295"/>
<text text-anchor="middle" x="787" y="-415.8" font-family="Times,serif" font-size="14.00">Meet</text>
<polyline fill="none" stroke="black" points="665,-408 909,-408 "/>
<text text-anchor="start" x="673" y="-392.8" font-family="Times,serif" font-size="14.00">id :integer</text>
<text text-anchor="start" x="673" y="-377.8" font-family="Times,serif" font-size="14.00">title :character varying</text>
<text text-anchor="start" x="673" y="-362.8" font-family="Times,serif" font-size="14.00">image :character varying</text>
<text text-anchor="start" x="673" y="-347.8" font-family="Times,serif" font-size="14.00">description :text</text>
<text text-anchor="start" x="673" y="-332.8" font-family="Times,serif" font-size="14.00">date :timestamp without time zone</text>
<text text-anchor="start" x="673" y="-317.8" font-family="Times,serif" font-size="14.00">created_at :timestamp without time zone</text>
<text text-anchor="start" x="673" y="-302.8" font-family="Times,serif" font-size="14.00">updated_at :timestamp without time zone</text>
</g>
<!-- User -->
<g id="node5" class="node"><title>User</title>
<path fill="none" stroke="black" d="M642.5,-1C642.5,-1 931.5,-1 931.5,-1 937.5,-1 943.5,-7 943.5,-13 943.5,-13 943.5,-245 943.5,-245 943.5,-251 937.5,-257 931.5,-257 931.5,-257 642.5,-257 642.5,-257 636.5,-257 630.5,-251 630.5,-245 630.5,-245 630.5,-13 630.5,-13 630.5,-7 636.5,-1 642.5,-1"/>
<text text-anchor="middle" x="787" y="-241.8" font-family="Times,serif" font-size="14.00">User</text>
<polyline fill="none" stroke="black" points="630.5,-234 943.5,-234 "/>
<text text-anchor="start" x="638.5" y="-218.8" font-family="Times,serif" font-size="14.00">id :integer</text>
<text text-anchor="start" x="638.5" y="-203.8" font-family="Times,serif" font-size="14.00">name :character varying</text>
<text text-anchor="start" x="638.5" y="-188.8" font-family="Times,serif" font-size="14.00">email :character varying</text>
<text text-anchor="start" x="638.5" y="-173.8" font-family="Times,serif" font-size="14.00">created_at :timestamp without time zone</text>
<text text-anchor="start" x="638.5" y="-158.8" font-family="Times,serif" font-size="14.00">updated_at :timestamp without time zone</text>
<text text-anchor="start" x="638.5" y="-143.8" font-family="Times,serif" font-size="14.00">encrypted_password :character varying</text>
<text text-anchor="start" x="638.5" y="-128.8" font-family="Times,serif" font-size="14.00">reset_password_token :character varying</text>
<text text-anchor="start" x="638.5" y="-113.8" font-family="Times,serif" font-size="14.00">reset_password_sent_at :timestamp without time zone</text>
<text text-anchor="start" x="638.5" y="-98.8" font-family="Times,serif" font-size="14.00">remember_created_at :timestamp without time zone</text>
<text text-anchor="start" x="638.5" y="-83.8" font-family="Times,serif" font-size="14.00">sign_in_count :integer</text>
<text text-anchor="start" x="638.5" y="-68.8" font-family="Times,serif" font-size="14.00">current_sign_in_at :timestamp without time zone</text>
<text text-anchor="start" x="638.5" y="-53.8" font-family="Times,serif" font-size="14.00">last_sign_in_at :timestamp without time zone</text>
<text text-anchor="start" x="638.5" y="-38.8" font-family="Times,serif" font-size="14.00">current_sign_in_ip :inet</text>
<text text-anchor="start" x="638.5" y="-23.8" font-family="Times,serif" font-size="14.00">last_sign_in_ip :inet</text>
<text text-anchor="start" x="638.5" y="-8.8" font-family="Times,serif" font-size="14.00">role :integer</text>
</g>
<!-- Meet&#45;&gt;User -->
<g id="edge1" class="edge"><title>Meet&#45;&gt;User</title>
<path fill="none" stroke="#af8598" d="M787,-284.661C787,-279.121 787,-273.449 787,-267.702"/>
<polygon fill="#af8598" stroke="#af8598" points="787,-284.896 782.5,-294.896 787,-289.896 787,-294.896 787,-294.896 787,-294.896 787,-289.896 791.5,-294.896 787,-284.896 787,-284.896"/>
<polygon fill="#af8598" stroke="#af8598" points="787,-267.292 791.5,-257.292 787,-262.292 787,-257.292 787,-257.292 787,-257.292 787,-262.292 782.5,-257.292 787,-267.292 787,-267.292"/>
</g>
</g>
</svg>
